<svg xmlns="http://www.w3.org/2000/svg" xmlns:svg="http://www.w3.org/2000/svg" id="svg3342" width="20" height="20" version="1.1" viewBox="0 0 20 20"><metadata id="metadata3347"/><g id="layer1" transform="translate(0,-1032.3622)"><path id="rect3174" d="m 14.000001,1041.3619 -8.0000003,7e-4 -7e-7,1.9999 8.000002,-7e-4 z" style="color:#000;clip-rule:nonzero;display:inline;overflow:visible;visibility:visible;opacity:1;isolation:auto;mix-blend-mode:normal;color-interpolation:sRGB;color-interpolation-filters:linearRGB;solid-color:#000;solid-opacity:1;fill:#666;fill-opacity:1;fill-rule:nonzero;stroke:none;stroke-width:0;stroke-linecap:butt;stroke-linejoin:miter;stroke-miterlimit:4;stroke-dasharray:none;stroke-dashoffset:0;stroke-opacity:1;marker:none;color-rendering:auto;image-rendering:auto;shape-rendering:auto;text-rendering:auto;enable-background:accumulate"/><path style="color:#000;clip-rule:nonzero;display:inline;overflow:visible;visibility:visible;opacity:1;isolation:auto;mix-blend-mode:normal;color-interpolation:sRGB;color-interpolation-filters:linearRGB;solid-color:#000;solid-opacity:1;fill:#666;fill-opacity:1;fill-rule:nonzero;stroke:none;stroke-width:0;stroke-linecap:butt;stroke-linejoin:miter;stroke-miterlimit:4;stroke-dasharray:none;stroke-dashoffset:0;stroke-opacity:1;marker:none;color-rendering:auto;image-rendering:auto;shape-rendering:auto;text-rendering:auto;enable-background:accumulate" id="rect3364" d="m 3,1058.3622 c -1.1080096,0 -2,0.892 -2,2 l 0,14 c 0,1.108 0.8919904,2 2,2 l 14,0 c 1.10801,0 2,-0.892 2,-2 l 0,-14 c 0,-1.108 -0.89199,-2 -2,-2 l -14,0 z m 1,2 12,0 c 0.55401,0 1,0.446 1,1 l 0,12 c 0,0.554 -0.44599,1 -1,1 l -12,0 c -0.5540096,0 -1,-0.446 -1,-1 l 0,-12 c 0,-0.554 0.4459904,-1 1,-1 z"/><path style="color:#000;clip-rule:nonzero;display:inline;overflow:visible;visibility:visible;opacity:1;isolation:auto;mix-blend-mode:normal;color-interpolation:sRGB;color-interpolation-filters:linearRGB;solid-color:#000;solid-opacity:1;fill:#666;fill-opacity:1;fill-rule:nonzero;stroke:none;stroke-width:2;stroke-linecap:butt;stroke-linejoin:miter;stroke-miterlimit:4;stroke-dasharray:none;stroke-dashoffset:0;stroke-opacity:1;marker:none;color-rendering:auto;image-rendering:auto;shape-rendering:auto;text-rendering:auto;enable-background:accumulate" id="rect3359" d="M 4 3 C 3.4459889 3 3 3.4459889 3 4 L 3 16 C 3 16.554011 3.4459889 17 4 17 L 16 17 C 16.554011 17 17 16.554011 17 16 L 17 4 C 17 3.4459889 16.554011 3 16 3 L 4 3 z M 4 4 L 16 4 L 16 16 L 4 16 L 4 4 z" transform="translate(0,1032.3622)"/></g></svg>