<svg xmlns="http://www.w3.org/2000/svg" xmlns:svg="http://www.w3.org/2000/svg" id="svg2" width="24" height="24" version="1.1"><metadata id="metadata7"/><g id="layer1" transform="translate(0,-1028.3622)"><path style="color:#000;clip-rule:nonzero;display:inline;overflow:visible;visibility:visible;opacity:1;isolation:auto;mix-blend-mode:normal;color-interpolation:sRGB;color-interpolation-filters:linearRGB;solid-color:#000;solid-opacity:1;fill:#949a67;fill-opacity:1;fill-rule:evenodd;stroke:none;stroke-width:2;stroke-linecap:butt;stroke-linejoin:miter;stroke-miterlimit:4;stroke-dasharray:none;stroke-dashoffset:0;stroke-opacity:1;marker:none;color-rendering:auto;image-rendering:auto;shape-rendering:auto;text-rendering:auto;enable-background:accumulate" id="rect4707" d="M 11,3 10.257812,5.2304688 C 9.613671,5.396889 9.0063598,5.6505817 8.4472656,5.9824219 L 6.34375,4.9296875 4.9296875,6.34375 5.9824219,8.4472656 C 5.6505841,9.0063599 5.3968873,9.6136741 5.2304688,10.257812 L 3,11 l 0,2 2.2304688,0.742188 c 0.1664185,0.644146 0.4201153,1.251452 0.7519531,1.810546 L 4.9296875,17.65625 6.34375,19.070312 8.4472656,18.017578 c 0.5590942,0.331834 1.1664054,0.585537 1.8105464,0.751953 L 11,21 l 2,0 0.742188,-2.230469 c 0.644141,-0.166416 1.251452,-0.420119 1.810546,-0.751953 l 2.103516,1.052734 1.414062,-1.414062 -1.052734,-2.103516 c 0.331838,-0.559094 0.585535,-1.1664 0.751953,-1.810546 L 21,13 21,11 18.769531,10.257812 C 18.603113,9.6136741 18.349416,9.0063599 18.017578,8.4472656 L 19.070312,6.34375 17.65625,4.9296875 15.552734,5.9824219 C 14.99364,5.6505817 14.386329,5.396889 13.742188,5.2304688 L 13,3 Z m 1,6 c 1.663955,0 3,1.33608 3,3 0,1.66398 -1.336045,3 -3,3 -1.663955,0 -3,-1.33602 -3,-3 0,-1.66392 1.336045,-3 3,-3 z" transform="translate(0,1028.3622)"/><path style="color:#000;clip-rule:nonzero;display:inline;overflow:visible;visibility:visible;opacity:1;isolation:auto;mix-blend-mode:normal;color-interpolation:sRGB;color-interpolation-filters:linearRGB;solid-color:#000;solid-opacity:1;fill:#a5aa7f;fill-opacity:1;fill-rule:evenodd;stroke:none;stroke-width:2;stroke-linecap:butt;stroke-linejoin:miter;stroke-miterlimit:4;stroke-dasharray:none;stroke-dashoffset:0;stroke-opacity:1;marker:none;color-rendering:auto;image-rendering:auto;shape-rendering:auto;text-rendering:auto;enable-background:accumulate;filter-blend-mode:normal;filter-gaussianBlur-deviation:0" id="path4826" d="M 11 3 L 10.257812 5.2304688 C 9.8729409 5.3299041 9.5065367 5.4710576 9.1503906 5.6308594 A 14 14 0 0 1 18.361328 14.867188 C 18.524739 14.5057 18.66846 14.1334 18.769531 13.742188 L 21 13 L 21 11 L 18.769531 10.257812 C 18.603113 9.6136746 18.349416 9.0063599 18.017578 8.4472656 L 19.070312 6.34375 L 17.65625 4.9296875 L 15.552734 5.9824219 C 14.99364 5.6505817 14.386328 5.396889 13.742188 5.2304688 L 13 3 L 11 3 z M 6.34375 4.9296875 L 6.2128906 5.0605469 A 14 14 0 0 1 6.7226562 5.1191406 L 6.34375 4.9296875 z M 18.875 17.265625 A 14 14 0 0 1 18.9375 17.789062 L 19.070312 17.65625 L 18.875 17.265625 z" transform="translate(0,1028.3622)"/><path style="color:#000;clip-rule:nonzero;display:inline;overflow:visible;visibility:visible;opacity:1;isolation:auto;mix-blend-mode:normal;color-interpolation:sRGB;color-interpolation-filters:linearRGB;solid-color:#000;solid-opacity:1;fill:none;fill-opacity:1;fill-rule:evenodd;stroke:#605d4c;stroke-width:1;stroke-linecap:butt;stroke-linejoin:miter;stroke-miterlimit:4;stroke-dasharray:none;stroke-dashoffset:0;stroke-opacity:1;marker:none;color-rendering:auto;image-rendering:auto;shape-rendering:auto;text-rendering:auto;enable-background:accumulate" id="path4797" d="M 11,3 10.257812,5.2304688 C 9.613671,5.396889 9.0063598,5.6505817 8.4472656,5.9824219 L 6.34375,4.9296875 4.9296875,6.34375 5.9824219,8.4472656 C 5.6505841,9.0063599 5.3968873,9.6136741 5.2304688,10.257812 L 3,11 l 0,2 2.2304688,0.742188 c 0.1664185,0.644146 0.4201153,1.251452 0.7519531,1.810546 L 4.9296875,17.65625 6.34375,19.070312 8.4472656,18.017578 c 0.5590942,0.331834 1.1664054,0.585537 1.8105464,0.751953 L 11,21 l 2,0 0.742188,-2.230469 c 0.644141,-0.166416 1.251452,-0.420119 1.810546,-0.751953 l 2.103516,1.052734 1.414062,-1.414062 -1.052734,-2.103516 c 0.331838,-0.559094 0.585535,-1.1664 0.751953,-1.810546 L 21,13 21,11 18.769531,10.257812 C 18.603113,9.6136741 18.349416,9.0063599 18.017578,8.4472656 L 19.070312,6.34375 17.65625,4.9296875 15.552734,5.9824219 C 14.99364,5.6505817 14.386329,5.396889 13.742188,5.2304688 L 13,3 Z m 1,6 c 1.663955,0 3,1.33608 3,3 0,1.66398 -1.336045,3 -3,3 -1.663955,0 -3,-1.33602 -3,-3 0,-1.66392 1.336045,-3 3,-3 z" transform="translate(0,1028.3622)"/></g></svg>